<svg xmlns="http://www.w3.org/2000/svg" height="40" viewBox="0 96 960 960" width="40"><path d="m480 866-18.667-17.333q-98.178-89.748-162.089-153.707Q235.333 631 198.167 582.833 161 534.667 146.5 496.219 132 457.771 132 420q0-70.146 47.833-118.073Q227.667 254 298 254q53.667 0 100 29.5t82 86.5q37-57.667 82.571-86.833Q608.142 254 662 254q70.333 0 118.167 47.927Q828 349.854 828 420q0 37.771-14.5 76.219-14.5 38.448-51.59 86.471-37.091 48.023-100.911 112.126-63.82 64.103-162.332 153.851L480 866Zm0-32.667q96.861-88.032 159.417-150.77 62.556-62.738 99.236-109.317 36.68-46.579 51.014-82.44Q804 454.945 804 420.096q0-60.763-40.667-101.429Q722.667 278 662.15 278q-49.683 0-90.75 28.5t-80.067 90.833h-22.666q-40-62.666-80.887-91Q346.893 278 297.85 278q-59.517 0-100.683 40.667Q156 359.333 156 420.431q0 34.64 14.44 70.465t50.667 82.298q36.226 46.473 99.226 108.973T480 833.333Zm0-277.666Z"/></svg>