<svg xmlns="http://www.w3.org/2000/svg" height="40" viewBox="0 96 960 960" width="40"><path d="M480.059 548q21.608 0 36.774-15.226Q532 517.549 532 495.941q0-21.608-15.226-36.774Q501.549 444 479.941 444q-21.608 0-36.774 15.226Q428 474.451 428 496.059q0 21.608 15.226 36.774Q458.451 548 480.059 548ZM480 922.333q128-110 199-225.5T750 504q0-122.194-77.861-200.097T480 226q-114.278 0-192.139 77.903T210 504q0 77.333 71.333 192.833 71.334 115.5 198.667 225.5ZM480 956Q331 822 258.5 707.5T186 504q0-138 89-220t205-82q116 0 205 82t89 220q0 89-72.5 203.5T480 956Zm0-452Z"/></svg>