<svg xmlns="http://www.w3.org/2000/svg" height="40" viewBox="0 96 960 960" width="40"><path d="M780.667 892 528 639.333q-29.737 26.718-69.034 40.693Q419.669 694 381.333 694q-91.951 0-155.642-63.504T162 475.163q0-91.83 63.504-155.496Q289.008 256 380.686 256q91.677 0 155.829 63.551 64.152 63.552 64.152 155.307 0 40.809-15 80.142t-40.334 67L798 874l-17.333 18ZM381.333 670q82.389 0 138.862-56.167Q576.667 557.667 576.667 475t-56.472-138.833Q463.722 280 381.333 280t-138.861 56.167Q186 392.333 186 475t56.472 138.833Q298.944 670 381.333 670Z"/></svg>