<svg xmlns="http://www.w3.org/2000/svg" height="40" viewBox="0 96 960 960" width="40"><path d="M268 924q-23.85 0-39.925-16.075Q212 891.85 212 868V444q0-23.85 16.075-39.925Q244.15 388 268 388h80v-28q0-55.333 38.333-93.667Q424.667 228 480 228t93.667 38.333Q612 304.667 612 360v28h80q23.85 0 39.925 16.075Q748 420.15 748 444v424q0 23.85-16.075 39.925Q715.85 924 692 924H268Zm0-24h424q12 0 22-10t10-22V444q0-12-10-22t-22-10h-80v108q0 5.15-3.462 8.575-3.462 3.425-8.667 3.425-5.204 0-8.538-3.425Q588 525.15 588 520V412H372v108q0 5.15-3.462 8.575-3.462 3.425-8.667 3.425-5.204 0-8.538-3.425Q348 525.15 348 520V412h-80q-12 0-22 10t-10 22v424q0 12 10 22t22 10Zm104-512h216v-28q0-45.667-31.167-76.833Q525.667 252 480 252t-76.833 31.167Q372 314.333 372 360v28ZM236 900V412v488Z"/></svg>