<svg xmlns="http://www.w3.org/2000/svg" height="40" viewBox="0 96 960 960" width="40"><path d="M480 544q-44.55 0-75.275-30.725Q374 482.55 374 437.667q0-44.884 30.725-75.275Q435.45 332 480 332q44.55 0 75.275 30.392Q586 392.783 586 437.667q0 44.883-30.725 75.608T480 544ZM212 824v-48.667q0-22.666 13.833-41.833 13.834-19.167 36.834-30.167Q319 678 373.146 665t106.833-13q52.688 0 106.854 13Q641 678 696.984 703.599q23.46 10.806 37.238 29.937Q748 752.667 748 775.333V824H212Zm24-24h488v-24.667q0-14.666-10.167-28.166-10.166-13.5-28.5-23.167-50-24.333-101.353-36.167Q532.627 676 480 676q-52.626 0-104.313 11.833Q324 699.667 274.667 724q-18.334 9.667-28.5 23.167Q236 760.667 236 775.333V800Zm244-280q34.333 0 58.167-23.833Q562 472.333 562 438t-23.833-58.167Q514.333 356 480 356t-58.167 23.833Q398 403.667 398 438t23.833 58.167Q445.667 520 480 520Zm0-82Zm0 362Z"/></svg>